<svg xmlns="http://www.w3.org/2000/svg" viewBox="0 0 411.63 221.52"><defs><style>.cls-1{fill:#fff;}</style></defs><title>Asset 7</title><g id="Layer_2" data-name="Layer 2"><g id="Layer_1-2" data-name="Layer 1"><path class="cls-1" d="M405.19,154.87c-.64-1-1.32-2.1-2-3.25-3-5-6.68-10.86-11.09-14.8,6.4-5.17,10.07-10.55,13.66-19.57a83.55,83.55,0,0,0,5.87-31.34A83.64,83.64,0,0,0,405,52.83,86,86,0,0,0,325.16,0H285.69l-.2,134-27.89,0c5.33-5.1,8.58-10.18,11.64-17.79a82.19,82.19,0,0,0,5.87-31.08,82.34,82.34,0,0,0-6.59-32.81,84.9,84.9,0,0,0-18.19-27.11A86.66,86.66,0,0,0,188.67,0H149.2V134.19l-13.34,0V0H93.39V134.6H42.47V0H0V221.52H42.47V168.89H93.39v52.63h42.47V168.83H149.2v52.69h78.4A48.09,48.09,0,0,0,245.73,218a50.48,50.48,0,0,0,15.14-9.41,44.36,44.36,0,0,0,10.37-14.07,41.18,41.18,0,0,0,3.87-17.42,21.07,21.07,0,0,0-1.7-8.26H285.5l.2,52.69h78.39A48.15,48.15,0,0,0,382.23,218a50.56,50.56,0,0,0,15.13-9.41,44.14,44.14,0,0,0,10.37-14.08A41.26,41.26,0,0,0,405.19,154.87ZM191.67,39.25a40.55,40.55,0,0,1,14,3.52,43.35,43.35,0,0,1,13.95,9.94,48.16,48.16,0,0,1,9.5,15,49,49,0,0,1,0,36.44,48.23,48.23,0,0,1-9.49,14.95,43.2,43.2,0,0,1-14,10l-.87.4c-4.28,1.94-8.68,3.93-13.13,4.6Zm41,136.2c0,2.21-.83,4.7-1.54,5.38l0,0a5.14,5.14,0,0,1-3.65,1.49H191.67V169.08h35.71a5,5,0,0,1,3.6,1.55l.05.06A7.69,7.69,0,0,1,232.64,175.45Zm95.52-6.37h35.71a5,5,0,0,1,3.6,1.55l.06.06a7.75,7.75,0,0,1,1.6,4.76c0,2.21-.83,4.7-1.59,5.42a5.14,5.14,0,0,1-3.65,1.49H328.17Zm0-35.07V39.25a40.44,40.44,0,0,1,14,3.52,43.24,43.24,0,0,1,13.95,9.94,48.38,48.38,0,0,1,9.51,15,49,49,0,0,1,0,36.44,48.23,48.23,0,0,1-9.49,14.95,43.27,43.27,0,0,1-14,10l-.89.4C337,131.36,332.61,133.35,328.17,134Z"/></g></g></svg>