<svg xmlns="http://www.w3.org/2000/svg" viewBox="0 0 278.63 149.94"><defs><style>.cls-1{fill:#fff;}</style></defs><title>Asset 8</title><g id="Layer_2" data-name="Layer 2"><g id="Layer_1-2" data-name="Layer 1"><path class="cls-1" d="M274.27,104.83c-.43-.68-.89-1.42-1.37-2.2-2.06-3.35-4.52-7.35-7.51-10,4.33-3.5,6.82-7.14,9.25-13.24a56.77,56.77,0,0,0,4-21.22,56.61,56.61,0,0,0-4.46-22.39A58.19,58.19,0,0,0,220.1,0H193.38l-.13,90.71-18.88,0a31.35,31.35,0,0,0,7.87-12,55.43,55.43,0,0,0,4-21,55.72,55.72,0,0,0-4.46-22.21,57.67,57.67,0,0,0-12.31-18.35,58.52,58.52,0,0,0-18.6-12.48A57.85,57.85,0,0,0,127.71,0H101V90.83l-9,0V0H63.21V91.11H28.75V0H0V149.94H28.75V114.32H63.21v35.62H92V114.28h9v35.66h53.07a32.51,32.51,0,0,0,12.28-2.39,34,34,0,0,0,10.24-6.37,30,30,0,0,0,7-9.52,27.82,27.82,0,0,0,2.62-11.79,14.28,14.28,0,0,0-1.15-5.59h8.19l.13,35.66h53.06a32.51,32.51,0,0,0,12.28-2.39A34,34,0,0,0,269,141.18a30,30,0,0,0,7-9.52A27.92,27.92,0,0,0,274.27,104.83ZM139.22,29a29.16,29.16,0,0,1,9.45,6.73,32.61,32.61,0,0,1,6.43,10.13,33.22,33.22,0,0,1,0,24.67,32.47,32.47,0,0,1-6.42,10.12,29.16,29.16,0,0,1-9.45,6.73l-.6.27a34.44,34.44,0,0,1-8.88,3.11V26.57A27.46,27.46,0,0,1,139.22,29Zm19.52,96.91c-.41,4.38-4.09,9.08-8.82,9.58H129.74v-21h20.17C155.35,115.06,159.21,120.88,158.74,125.86Zm63.39-99.29A27.46,27.46,0,0,1,231.61,29a29.16,29.16,0,0,1,9.45,6.73,32.61,32.61,0,0,1,6.43,10.13,33.28,33.28,0,0,1,0,24.67,32.68,32.68,0,0,1-6.43,10.12,29.16,29.16,0,0,1-9.45,6.73l-.6.27a34.44,34.44,0,0,1-8.88,3.11ZM251,125.86c-.42,4.38-4.09,9.08-8.82,9.58H222v-21h20.17C247.59,115.06,251.44,120.88,251,125.86Z"/></g></g></svg>