<svg xmlns="http://www.w3.org/2000/svg" viewBox="0 0 339.63 185.54"><defs><style>.cls-1{fill:#fff;}</style></defs><title>Asset 6</title><g id="Layer_2" data-name="Layer 2"><g id="Layer_1-2" data-name="Layer 1"><path class="cls-1" d="M75.69,185.54V142.89H40.43v42.65H0V0H40.43V109.1H75.69V0h40.43V108.77h4.81V0h35.54A72.43,72.43,0,0,1,223.4,44.27,69.7,69.7,0,0,1,229,72a69.57,69.57,0,0,1-5,26.29,45.49,45.49,0,0,1-5.55,10.3H231.4L231.56,0H267A72.53,72.53,0,0,1,334,44.66a70.9,70.9,0,0,1,5.56,28,70.62,70.62,0,0,1-5,26.49c-2.63,6.61-5.42,11-9.5,14.92a73.92,73.92,0,0,1,7.18,10.26l.1.15c.53.86,1,1.69,1.52,2.44a36.46,36.46,0,0,1,2.25,35,38.83,38.83,0,0,1-9.11,12.36,43.75,43.75,0,0,1-13.17,8.2,42.1,42.1,0,0,1-15.81,3.07H231.58l-.16-42.7h-2.79a18.93,18.93,0,0,1,.35,3.71,36.32,36.32,0,0,1-3.42,15.38,38.94,38.94,0,0,1-9.1,12.34,43.92,43.92,0,0,1-13.18,8.2,42.1,42.1,0,0,1-15.81,3.07H120.93v-42.7h-4.81v42.7Zm29.56-10.86V142.84H86.56v31.84Zm192.84,0a31.22,31.22,0,0,0,11.77-2.29,32.89,32.89,0,0,0,9.93-6.16,27.93,27.93,0,0,0,6.55-8.9,25.62,25.62,0,0,0-1.57-24.59c-.52-.81-1.1-1.74-1.7-2.72-2.49-4-5.9-9.58-9.06-11.39l-7.39-4.22,6.95-4.93c5.61-4,8.17-7.32,11-14.34a60,60,0,0,0,4.2-22.48A60.14,60.14,0,0,0,324,48.86a61.4,61.4,0,0,0-32.83-33,60.84,60.84,0,0,0-24.06-4.94H242.41l-.15,97.73,18.86,0V26.91l5.73,0a40.41,40.41,0,0,1,16.71,3.62,43,43,0,0,1,13.83,9.86,47.11,47.11,0,0,1,9.25,14.57,47.63,47.63,0,0,1,0,35.42,47,47,0,0,1-9.23,14.53,42.94,42.94,0,0,1-13.85,9.88l-.69.31c-4.15,1.88-8.79,4-14,4.49v.12h-3l-23.65,0h0l-3,.09h-7.86v-.08l-24.62,0-1.52,1.2-1-1.2-117.69.16h0l-3,0h-54V10.87H10.87v163.8H29.56V132H78.28l3,0,156,.16,5,0v0l19.29,0,2.57,0H297.9a11.9,11.9,0,0,1,8.62,3.69,14,14,0,0,1,3.53,9.34c0,.67-.1,6.67-3.72,10.08a11.88,11.88,0,0,1-8.38,3.39H261.12V142.84H242.28l.12,31.83Zm-110.63,0a31.19,31.19,0,0,0,11.77-2.29,33.06,33.06,0,0,0,9.94-6.16,28.23,28.23,0,0,0,6.55-8.9,25.66,25.66,0,0,0,2.4-10.79,9.08,9.08,0,0,0-.8-3.69h-18.1a14.65,14.65,0,0,1,.2,2.36c0,.67-.1,6.63-3.69,10.05a11.93,11.93,0,0,1-8.4,3.42H150.49V142.84h-18.7v31.83Zm-.19-26.87a1.22,1.22,0,0,0,.8-.26,6.43,6.43,0,0,0,.49-2.34,3.94,3.94,0,0,0-.49-1.8,1.07,1.07,0,0,0-.78-.36H161.35v4.76Zm110.63,0a1.21,1.21,0,0,0,.79-.25,6.16,6.16,0,0,0,.5-2.35,4,4,0,0,0-.49-1.81,1.1,1.1,0,0,0-.78-.35H272v4.76Zm-211.34-39,18.69,0V10.87H86.56Zm45.23-.06,18.7,0V26.91l5.57,0a40.76,40.76,0,0,1,16.87,3.61,43,43,0,0,1,13.83,9.86A47.11,47.11,0,0,1,196,54.92a47.63,47.63,0,0,1,0,35.42,47,47,0,0,1-9.23,14.53,42.81,42.81,0,0,1-4.06,3.81l20.57,0c5.52-4.47,8.05-7.92,10.64-14.36a58.94,58.94,0,0,0,4.2-22.24,59.07,59.07,0,0,0-4.72-23.54A61.12,61.12,0,0,0,200.33,29,62.41,62.41,0,0,0,156.4,10.87H131.79Zm29.56-1a64.47,64.47,0,0,0,6.4-2.64l.71-.32a32,32,0,0,0,10.37-7.39,35.89,35.89,0,0,0,7.09-11.18,36.62,36.62,0,0,0,0-27.28,35.89,35.89,0,0,0-7.11-11.22,32.22,32.22,0,0,0-10.34-7.37,30.31,30.31,0,0,0-7.13-2.2Zm110.63,0a67.77,67.77,0,0,0,6.39-2.63l.72-.33a32,32,0,0,0,10.37-7.39A36.58,36.58,0,0,0,296.56,59a35.89,35.89,0,0,0-7.11-11.22,32,32,0,0,0-10.34-7.37A30.17,30.17,0,0,0,272,38.2Z"/></g></g></svg>