<svg xmlns="http://www.w3.org/2000/svg" viewBox="0 0 333.63 179.54"><defs><style>.cls-1{fill:#FFF;}</style></defs><title>Asset 5</title><g id="Layer_2" data-name="Layer 2"><g id="Layer_1-2" data-name="Layer 1"><path class="cls-1" d="M328.41,125.52c-.52-.81-1.07-1.7-1.64-2.63-2.47-4-5.42-8.8-9-12,5.18-4.19,8.16-8.55,11.07-15.86a67.64,67.64,0,0,0,4.75-25.4,67.92,67.92,0,0,0-5.33-26.81A69.71,69.71,0,0,0,263.55,0h-32l-.17,108.61-22.6,0c4.32-4.13,7-8.25,9.43-14.42A66.75,66.75,0,0,0,223,69a66.7,66.7,0,0,0-5.34-26.59,69.08,69.08,0,0,0-14.74-22A70.3,70.3,0,0,0,152.92,0h-32V108.76l-10.81,0V0H75.69V109.1H34.43V0H0V179.54H34.43V136.89H75.69v42.65h34.43v-42.7h10.81v42.7h63.54a39,39,0,0,0,14.7-2.86,40.82,40.82,0,0,0,12.27-7.63,35.91,35.91,0,0,0,8.4-11.4A33.32,33.32,0,0,0,223,143.53a16.92,16.92,0,0,0-1.38-6.69h9.8l.17,42.7H295.1a39,39,0,0,0,14.7-2.86,40.82,40.82,0,0,0,12.27-7.63,35.84,35.84,0,0,0,8.4-11.41A33.45,33.45,0,0,0,328.41,125.52ZM125.79,4.87h27.15a64.57,64.57,0,0,1,60.22,39.46,62.11,62.11,0,0,1,5,24.7,61.91,61.91,0,0,1-4.42,23.38c-2.86,7.14-5.81,11-12.13,16.06l-.24.18-32,0a39.82,39.82,0,0,0,12.22-8.87,43.81,43.81,0,0,0,8.65-13.62,44.58,44.58,0,0,0,0-33.17,43.78,43.78,0,0,0-8.65-13.64,39.87,39.87,0,0,0-12.87-9.17,37.59,37.59,0,0,0-15.79-3.35h-2.42v81.83l-24.7,0Zm29.56,26.94a33.11,33.11,0,0,1,11.36,2.85A35.24,35.24,0,0,1,178,42.72a38.84,38.84,0,0,1,7.7,12.14,39.67,39.67,0,0,1,0,29.53A39.2,39.2,0,0,1,178,96.51a35,35,0,0,1-11.32,8.06l-.71.33c-3.47,1.57-7,3.18-10.64,3.72ZM105.25,4.87V108.78l-24.69,0V4.87Zm0,169.81H80.56V136.84h24.69ZM216.54,137.8a10.39,10.39,0,0,1,1.58,5.72,28.5,28.5,0,0,1-2.69,12.07,31.08,31.08,0,0,1-7.26,9.86,36.14,36.14,0,0,1-10.81,6.72,34.33,34.33,0,0,1-12.9,2.51H125.79V136.84h24.7v15.83h33.84a9,9,0,0,0,6.33-2.59c2.19-2.08,2.76-6.06,2.76-7.88a12,12,0,0,0-1.33-5.36h23.62Zm-28,4.4a7.55,7.55,0,0,1-1.26,4.36l0,0a4.17,4.17,0,0,1-3,1.2h-29V137h28.94a4.07,4.07,0,0,1,2.92,1.25l0,.05A6.26,6.26,0,0,1,188.56,142.2Zm137.5,13.39a31.08,31.08,0,0,1-7.26,9.86A36.18,36.18,0,0,1,308,172.17a34.24,34.24,0,0,1-12.89,2.51H236.41l-.14-37.83h24.84v15.83H295a8.94,8.94,0,0,0,6.32-2.57c2.2-2.08,2.78-6.07,2.78-7.9a11,11,0,0,0-2.7-7.27,8.92,8.92,0,0,0-6.42-2.76H261.11v0l-24.86,0h-2l-156-.16v0H29.56v42.64H4.87V4.87H29.56V114h51v0l122.11-.17,0,0,0,0,28.66,0v.08h4.86v-.1l26.65,0h.65c5.48,0,10.58-2.31,15.07-4.34l.7-.32a39.83,39.83,0,0,0,12.88-9.18,43.87,43.87,0,0,0,8.65-13.62,44.58,44.58,0,0,0,0-33.17A43.67,43.67,0,0,0,292.2,39.4a39.87,39.87,0,0,0-12.87-9.17,37.22,37.22,0,0,0-15.79-3.35h-2.42v81.68l-24.86,0,.15-103.74h27.15a63.71,63.71,0,0,1,25.79,5.18,64.36,64.36,0,0,1,34.43,34.64,63.27,63.27,0,0,1,5,24.94,63.14,63.14,0,0,1-4.41,23.61c-3,7.56-5.94,11.37-12,15.68l-3.12,2.21L312.5,113c3.83,2.19,7.32,7.86,10.12,12.42.6,1,1.16,1.87,1.69,2.69A28.61,28.61,0,0,1,326.06,155.59ZM266,137h28.94a4.07,4.07,0,0,1,2.92,1.25l0,.05a6.26,6.26,0,0,1,1.31,3.86,7.55,7.55,0,0,1-1.29,4.4,4.17,4.17,0,0,1-3,1.2H266Zm0-28.42V31.81a33,33,0,0,1,11.35,2.85,35,35,0,0,1,11.31,8.06,39.2,39.2,0,0,1,7.7,12.14,39.67,39.67,0,0,1,0,29.53,39.38,39.38,0,0,1-7.69,12.12,35,35,0,0,1-11.32,8.06l-.72.33C273.15,106.47,269.59,108.08,266,108.62Z"/></g></g></svg>